<svg width="92" height="58" viewBox="0 0 92 58" fill="none" xmlns="http://www.w3.org/2000/svg">
<g clip-path="url(#clip0_32_2284)">
<path d="M69.9901 11.515C68.4113 9.79479 61.004 2.70969 46.0701 2.45577C46.0297 2.45195 45.9902 2.44336 45.9489 2.44336C45.8305 2.44336 45.716 2.44813 45.5987 2.44813C45.4813 2.44813 45.3668 2.44336 45.2485 2.44336C45.2071 2.44336 45.1676 2.45195 45.1272 2.45577C30.1933 2.70969 22.786 9.79479 21.2072 11.515C1.95248 16.2613 -0.236328 24.6065 0.183153 29.1791C0.811411 36.0293 7.66261 41.798 13.6604 42.8032L14.0924 54.1984C14.1155 54.8169 14.559 55.321 15.1401 55.4537C15.4182 55.5692 15.7366 55.5921 16.0464 55.4957C16.1869 55.4518 30.3155 51.0997 45.6362 51.0997C59.9293 51.0997 74.9662 55.4584 75.1162 55.5023C75.2413 55.5386 75.3674 55.5568 75.4915 55.5568C75.6502 55.5568 75.8061 55.5272 75.9514 55.4737C76.5835 55.3821 77.0799 54.8551 77.104 54.1993L77.536 42.8042C83.5338 41.799 90.385 36.0293 91.0132 29.18C91.4327 24.6074 89.2439 16.2632 69.9901 11.5159V11.515ZM23.0477 13.4968C23.6904 12.7655 30.6811 5.248 45.5977 5.12962C60.5277 5.248 67.5175 12.7789 68.1477 13.4958C73.497 22.178 68.368 27.5228 63.2919 31.2105C63.1736 31.2964 63.0629 31.3766 62.96 31.452C59.1163 30.3294 54.3096 29.5055 48.3272 29.2926C46.1981 25.6756 45.3957 12.714 45.3957 12.714C45.3957 12.714 44.5913 25.7091 42.4564 29.306C36.6635 29.5408 31.9906 30.3542 28.2354 31.451C28.1325 31.3756 28.0218 31.2954 27.9035 31.2095C22.8274 27.5219 17.6984 22.178 23.0468 13.4958L23.0477 13.4968ZM2.87322 28.9356C2.32674 22.9712 8.14559 18.0025 19.3253 14.7931C15.3816 23.9144 21.6151 29.7938 25.1278 32.4973C23.4518 33.1407 22.0067 33.8366 20.7646 34.5449C18.5758 34.5459 13.2005 33.9425 9.25586 28.4631C9.25586 28.4631 10.5489 34.2194 17.2231 36.9839C15.6847 38.2736 14.7582 39.4325 14.2521 40.1799C9.34149 39.4334 3.37448 34.4017 2.87322 28.9356ZM16.7344 52.5631L16.3312 41.9355C17.3203 40.3709 23.6462 32.0095 45.5987 31.9207C67.5791 32.0095 73.8924 40.3928 74.8651 41.9336L74.4611 52.5984C70.3394 51.4978 57.9089 48.4774 45.6371 48.4774C32.6467 48.4774 20.8079 51.4271 16.7353 52.5622L16.7344 52.5631ZM88.3222 28.9356C87.8209 34.4017 81.8539 39.4344 76.9433 40.1799C76.4218 39.4105 75.4568 38.2058 73.8366 36.8713C80.278 34.0657 81.5355 28.4631 81.5355 28.4631C77.8082 33.6409 72.8053 34.4638 70.4183 34.5382C69.1791 33.8328 67.7378 33.1388 66.0666 32.4982C69.5793 29.7948 75.8138 23.9153 71.8691 14.7941C83.0489 18.0044 88.8677 22.9722 88.3212 28.9366L88.3222 28.9356Z" fill="#ED8E06"/>
</g>
<defs>
<clipPath id="clip0_32_2284">
<rect width="90.9195" height="56.3218" fill="white" transform="translate(0.137939 0.838867)"/>
</clipPath>
</defs>
</svg>
