<?xml version="1.0" encoding="UTF-8"?>
<svg id="Calque_1" data-name="Calque 1" xmlns="http://www.w3.org/2000/svg" viewBox="0 0 1500 1500">
  <defs>
    <style>
      .cls-1 {
        fill: #ed8e06;
      }

      .cls-1, .cls-2 {
        stroke-width: 0px;
      }

      .cls-2 {
        fill: #098c8c;
      }
    </style>
  </defs>
  <g>
    <path class="cls-1" d="M961.67,151.94c-13.78-15.13-78.42-77.44-208.74-79.68-.35-.03-.69-.11-1.06-.11-1.04,0-2.03.04-3.06.05-1.03,0-2.02-.05-3.06-.05-.36,0-.7.07-1.06.11-130.32,2.24-194.96,64.55-208.74,79.68-168.01,41.75-187.11,115.14-183.46,155.36,5.48,60.24,65.27,110.98,117.61,119.83l3.77,100.22c.24,6.36,5.47,11.35,11.77,11.35.15,0,.3,0,.45,0,6.51-.24,11.58-5.72,11.34-12.22l-4.03-106.96c8.63-13.76,63.83-87.3,255.4-88.08,191.81.78,246.9,74.51,255.39,88.07l-4.02,106.98c-.24,6.51,4.83,11.98,11.34,12.22.15,0,.3,0,.45,0,6.31,0,11.53-4.99,11.77-11.35l3.77-100.22c52.34-8.84,112.13-59.58,117.61-119.83,3.66-40.22-15.44-113.61-183.45-155.36ZM748.81,95.78c130.29,1.04,191.28,67.28,196.78,73.58,46.68,76.36,1.92,123.37-42.37,155.8-1.03.76-2,1.46-2.9,2.13-33.54-9.87-75.49-17.12-127.69-18.99-18.58-31.81-25.58-145.81-25.58-145.81,0,0-7.02,114.29-25.65,145.93-50.55,2.07-91.33,9.22-124.1,18.86-.9-.66-1.86-1.37-2.89-2.13-44.29-32.43-89.06-79.43-42.38-155.8,5.61-6.43,66.61-72.55,196.78-73.59ZM475.28,404.05c-42.85-6.56-94.92-50.82-99.29-98.9-4.77-52.46,46.01-96.16,143.57-124.39-34.42,80.22,19.98,131.93,50.64,155.71-14.63,5.66-27.24,11.78-38.08,18.01-19.1,0-66.01-5.3-100.43-53.49,0,0,11.28,50.63,69.52,74.94-13.43,11.34-21.51,21.54-25.93,28.11ZM1121.64,305.16c-4.37,48.08-56.44,92.33-99.3,98.9-4.55-6.77-12.97-17.36-27.11-29.1,56.21-24.68,67.18-73.95,67.18-73.95-32.52,45.53-76.18,52.78-97.01,53.43-10.82-6.21-23.39-12.3-37.97-17.95,30.65-23.78,85.06-75.49,50.64-155.71,97.56,28.23,148.34,71.93,143.57,124.38Z"/>
    <g>
      <path class="cls-2" d="M493.31,634.49c-.96,1.12-.24,2.79,1.2,2.95,7.89.48,28.07-1.67,45.61,14.03,6.22,5.58,20,24.4,22.79,32.46-15.45-19.47-37.39-30.3-55.73-30.3-49.44,0-93.7,63.71-108.93,91.23-.96,1.83,1.36,3.51,2.87,2.07,12.2-11.8,58.05-37.56,63.87-26.32,7.34,14.27,5.07,54.36,56.86,67.46,20.88,5.28,81.81-5.24,89.29-12.12,13.78-12.67-8.83-83.17-38.74-120.57-37-46.25-72.96-28.23-79.1-20.89ZM544.83,712.54c-4.77,7.58-15.9,9.15-24.87,3.51-8.96-5.64-12.36-16.36-7.59-23.94,4.77-7.58,15.9-9.15,24.87-3.51,8.96,5.64,12.36,16.36,7.59,23.94Z"/>
      <path class="cls-2" d="M978.15,788.08c51.79-13.1,49.52-53.19,56.86-67.46,5.82-11.24,51.67,14.51,63.87,26.32,1.52,1.44,3.83-.24,2.87-2.07-15.23-27.51-59.49-91.23-108.93-91.23-18.34,0-40.28,10.83-55.73,30.3,2.79-8.05,16.57-26.87,22.79-32.46,17.54-15.71,37.72-13.56,45.61-14.03,1.44-.16,2.15-1.83,1.2-2.95-6.14-7.34-42.1-25.36-79.1,20.89-29.9,37.4-52.52,107.9-38.74,120.57,7.48,6.88,68.41,17.4,89.29,12.12ZM955.17,712.54c-4.77-7.58-1.37-18.29,7.59-23.94,8.96-5.64,20.1-4.07,24.87,3.51,4.77,7.58,1.37,18.29-7.59,23.94-8.96,5.64-20.1,4.07-24.87-3.51Z"/>
      <path class="cls-2" d="M407.36,1073.37c109.07,54.02,268.86,72.26,342.46,74.43h0c.07,0,.15,0,.23,0h.47c.07,0,.15,0,.23,0h0c73.59-2.16,233.33-20.39,342.4-74.39l21.23-11.39c34.24-19.84,61.75-43.85,77.15-72.87,97.41,36.81,198.72,136.44,195.19,131.64-58.89-80.25-121.62-123.59-186.75-151.97.24-.76.46-1.43.7-2.23,3.23-9.43,5.85-18.99,7.95-28.64,73.38,26.58,196.42,97.91,191.17,93.42-58.38-49.95-124.81-88.6-187.98-111.23,1.67-11.22,2.65-22.53,3.03-33.87,4.26.44,7.8.79,10.42.99,105.46,8.24,224.73,86.19,213.5,77.26-70.53-56.04-151.25-88.07-223.78-97.29-.38-15.2-1.78-30.39-4.04-45.44,54.71-2.64,123.48,3.33,222.19,28.51-88.55-39.01-158.92-49.45-225.69-48.24-5.57-27.89-13.86-55.04-23.81-80.52,22.42-6.63,43.45-24.27,61.45-52.12,7.12-11.02,15.7-25.87,18.87-43.07,4.96-27.02-4.42-56.98-25.11-80.14-8.2-9.19-16.56-15.55-25.53-19.46-14.27-6.22-29.55-5.81-39.78-4.97-37.77,3.12-70.05,19.91-88.23,45.17-70.01-62.13-193.58-100.45-334.8-103.07h-.67c-138.28,2.56-259.71,39.33-330.44,99.19-18.62-23.14-49.66-38.33-85.5-41.29-10.22-.84-25.51-1.25-39.78,4.97-8.97,3.91-17.33,10.28-25.53,19.46-20.68,23.16-30.07,53.12-25.11,80.13,3.17,17.22,11.74,32.06,18.86,43.07,16.31,25.21,35.07,42.18,55.11,50.09-10.31,26.07-18.93,53.92-24.66,82.55-66.84-1.24-137.27,9.18-225.93,48.24,98.9-25.23,167.75-31.17,222.52-28.5-2.26,15.03-3.65,30.2-4.03,45.38-72.61,9.17-153.48,41.21-224.11,97.34-11.24,8.93,108.04-69.03,213.5-77.26,2.66-.21,6.29-.56,10.66-1.02.37,11.33,1.32,22.62,2.99,33.83-63.23,22.62-129.74,61.3-188.18,111.3-5.26,4.5,118.13-67.04,191.47-93.53,2.25,10.4,5.16,20.68,8.73,30.82-65.26,28.38-128.12,71.73-187.12,152.13-3.53,4.81,98.11-95.15,195.65-131.82,15.38,29.09,42.91,53.15,77.2,73.03l21.23,11.39ZM1175.5,545.6c12.21-1.03,21.17-.04,28.25,3.06,5.75,2.51,11.39,6.91,17.25,13.47,15.8,17.69,23.06,40.07,19.42,59.88-2.4,13.06-9.5,25.25-15.43,34.4-11.12,17.2-28.54,37.67-50.55,42.96-3.12-7.03-6.35-13.87-9.66-20.55,16.42-9.07,85.22-48.55,50.54-96.95-30.32-42.32-86.69,6.07-99.39,17.89-4.54-5.8-9-11.14-13.35-15.93,13.5-21.28,40.57-35.55,72.91-38.22ZM282.44,656.41c-5.92-9.15-13.02-21.33-15.42-34.41-3.64-19.8,3.61-42.18,19.41-59.87,5.86-6.56,11.51-10.96,17.26-13.47,7.09-3.09,16.01-4.08,28.25-3.06,30.09,2.48,55.55,15.05,69.85,33.92-4.67,4.88-9.5,10.37-14.44,16.5-17.98-15.68-67.5-52.86-95.24-14.16-31.57,44.06,22.62,80.74,44.99,93.81-3.55,7.06-7.01,14.34-10.35,21.81-19.08-7.27-34.26-25.52-44.32-41.07ZM691,1026.48c-.61-1.04,38.74-5.86,53.93-21.04,2.63-2.63,8.14-2.62,10.77,0,14.24,14.24,54.41,20,53.8,21.04-23.18,39.44-94.58,40.71-118.5,0ZM692.19,824.29c0-9.91,25.88-17.94,57.81-17.94s57.81,8.03,57.81,17.94-25.88,17.94-57.81,17.94-57.81-8.03-57.81-17.94ZM1188.9,912.58c-11.77-3.53-23.4-6.53-34.76-8.84-78.51-15.92-69.66-13.18-127.86-15.55-19.34-.79-28.18,17.1-2.39,19.45,87.24,7.94,116.18,10.52,161.83,23.03-.4,1.91-13.79,18.85-20.21,24.16-64.12-24.35-128.59-40.91-179.37-50.58-19.02-3.62-29.76,12.94-4.6,19.05,50.45,12.24,101.96,29.42,159.81,48.82-44.54,27.53-100.32,40.33-162.2,36.45-84-5.31-169-40.89-208.81-86.25,72.88-42.81,75.72-76.44,70.48-93.77-8.15-26.97-44.39-41.32-90.49-41.32-45.12-.35-79.87,14.37-88.01,41.32-5.26,17.4-4.09,51.65,69.51,94.75-39.07,43.02-121.91,76.75-204.53,81.96-62.41,3.96-118.64-8.27-163.91-34.72,55.93-18.75,106.01-35.33,155.08-47.24,25.16-6.1,14.42-22.67-4.6-19.05-49.8,9.49-112.78,25.62-175.68,49.21-8.24-6.46-23.5-22.24-23.63-22.86,45.48-12.45,74.49-15.03,161.55-22.96,25.79-2.35,16.95-20.23-2.39-19.45-58.2,2.36-49.35-.37-127.86,15.55-11.24,2.28-22.75,5.24-34.39,8.72-1.3-9.53-2.12-19.13-2.42-28.76,47.63-4.98,126.48-12.2,169.4-3.29,25.35,5.26,20.03-17.91.75-19.58-53.01-4.59-103.23-3.58-170.11,3.57.44-13.68,1.75-27.35,3.81-40.91,5.87.58,11.64,1.22,17.22,1.97,26.54,3.56,138.53,16.62,192.12,39.14,14.32,6.02,26.76-11.53,5.76-18.73-55.56-19.05-105.89-33.59-184-40.88-9.12-.85-18.25-1.53-27.4-2.05,18.82-90.57,68.31-172.83,105.06-209.58,62.53-62.52,188.39-102.97,328.52-105.59,140.13,2.62,266,43.07,328.52,105.59,36.75,36.75,86.22,119,105.04,209.56-9.26.53-18.5,1.21-27.73,2.07-78.11,7.29-128.44,21.83-184,40.88-21,7.2-8.56,24.75,5.76,18.73,53.59-22.52,165.58-35.57,192.12-39.14,5.69-.76,11.58-1.42,17.57-2,2.07,13.58,3.36,27.28,3.8,40.99-67.06-7.19-117.35-8.21-170.45-3.61-19.29,1.67-24.61,24.85.75,19.58,43.03-8.94,122.15-1.66,169.74,3.32-.3,9.66-1.08,19.28-2.39,28.84Z"/>
    </g>
  </g>
  <g>
    <path class="cls-1" d="M231.13,1340.13c-16.58-9.06-29.34-21.93-38.3-38.61-8.96-16.68-13.44-36.24-13.44-58.69s4.48-42.06,13.44-58.84c8.96-16.78,21.72-29.75,38.3-38.92,16.57-9.16,35.88-13.74,57.92-13.74,18.12,0,34.9,3.09,50.35,9.27,15.44,6.18,27.18,14.62,35.21,25.33,2.06,2.27,3.09,4.94,3.09,8.03,0,4.12-1.85,7.41-5.56,9.88-2.06,1.44-4.43,2.16-7.11,2.16-2.27,0-4.58-.51-6.95-1.54-2.37-1.03-4.28-2.47-5.71-4.32-6.39-8.03-14.93-14.16-25.64-18.38-10.71-4.22-23.27-6.33-37.68-6.33-24.92,0-44.48,7.77-58.69,23.32-14.21,15.55-21.31,36.91-21.31,64.09s7.11,48.45,21.31,63.78c14.21,15.34,33.87,23.01,59,23.01,13.38,0,25.17-2.01,35.37-6.02,10.19-4.02,18.07-9.68,23.63-16.99,5.56-7.31,8.34-15.7,8.34-25.17v-9.27c0-5.14-1.03-8.85-3.09-11.12-2.06-2.26-5.87-3.4-11.43-3.4h-44.79c-4.53,0-8.03-.98-10.5-2.93-2.47-1.96-3.71-4.79-3.71-8.49,0-7.82,4.73-11.74,14.21-11.74h53.74c11.94,0,20.74,2.58,26.41,7.72,5.66,5.15,8.49,13.08,8.49,23.78v11.74c0,14.42-4.17,27.39-12.51,38.92-8.34,11.53-19.87,20.59-34.6,27.18-14.72,6.59-31.25,9.88-49.57,9.88-22.24,0-41.65-4.53-58.23-13.59Z"/>
    <path class="cls-1" d="M440.4,1343.21c-13.18-7-23.22-16.47-30.12-28.42-6.9-11.94-10.35-25.22-10.35-39.85s3.45-27.9,10.35-39.85c6.9-11.94,16.94-21.41,30.12-28.42,13.18-7,28.73-10.5,46.64-10.5s33.41,3.5,46.49,10.5c13.07,7,23.06,16.48,29.96,28.42,6.9,11.94,10.35,25.23,10.35,39.85s-3.45,27.91-10.35,39.85c-6.9,11.95-16.89,21.42-29.96,28.42-13.08,7-28.57,10.5-46.49,10.5s-33.46-3.5-46.64-10.5ZM529.36,1315.42c10.5-9.68,15.75-23.17,15.75-40.46s-5.25-30.78-15.75-40.46c-10.5-9.68-24.61-14.52-42.32-14.52s-31.87,4.84-42.47,14.52c-10.61,9.68-15.91,23.17-15.91,40.46s5.3,30.79,15.91,40.46c10.6,9.68,24.76,14.52,42.47,14.52s31.82-4.84,42.32-14.52Z"/>
    <path class="cls-1" d="M614.92,1335.96c-11.54-11.84-17.3-28.16-17.3-48.96v-76.29c0-4.53,1.28-8.08,3.86-10.66,2.57-2.57,6.02-3.86,10.35-3.86s8.03,1.29,10.5,3.86c2.47,2.58,3.71,6.13,3.71,10.66v76.29c0,13.59,3.65,24.15,10.97,31.66,7.31,7.52,17.55,11.27,30.73,11.27,16.06,0,28.98-5.14,38.76-15.44,9.78-10.29,14.67-23.99,14.67-41.08v-62.7c0-4.53,1.28-8.08,3.86-10.66,2.57-2.57,6.12-3.86,10.66-3.86s7.98,1.24,10.35,3.71c2.37,2.47,3.55,6.08,3.55,10.81v128.5c0,4.74-1.19,8.34-3.55,10.81-2.37,2.47-5.82,3.71-10.35,3.71s-8.03-1.29-10.5-3.86-3.71-6.12-3.71-10.66v-15.14c-15.44,19.77-34.9,29.65-58.38,29.65-20.59,0-36.66-5.92-48.19-17.76Z"/>
    <path class="cls-1" d="M784.65,1349.86c-2.37-2.57-3.55-6.12-3.55-10.66v-128.5c0-9.68,4.63-14.52,13.9-14.52,4.32,0,7.72,1.29,10.19,3.86,2.47,2.58,3.71,6.13,3.71,10.66v15.75c13.59-18.12,32.02-27.18,55.29-27.18h7.41c4.94,0,8.75,1.03,11.43,3.09,2.67,2.06,4.02,5.05,4.02,8.96,0,3.71-1.39,6.59-4.17,8.65-2.78,2.06-6.54,3.09-11.27,3.09h-9.27c-16.27,0-29.14,4.79-38.61,14.36-9.47,9.58-14.21,22.6-14.21,39.07v62.7c0,4.53-1.29,8.08-3.86,10.66-2.58,2.57-6.13,3.86-10.66,3.86s-7.98-1.29-10.35-3.86Z"/>
    <path class="cls-1" d="M911.44,1349.86c-2.47-2.57-3.71-6.12-3.71-10.66v-128.5c0-4.53,1.23-8.08,3.71-10.66,2.47-2.57,5.97-3.86,10.5-3.86s8.08,1.29,10.66,3.86c2.57,2.58,3.86,6.13,3.86,10.66v14.21c5.14-9.06,11.84-16.11,20.08-21.16,8.23-5.04,16.99-7.57,26.26-7.57s17.81,2.52,25.02,7.57c7.21,5.05,12.56,12.1,16.06,21.16,15.03-19.15,32.02-28.73,50.97-28.73,16.26,0,28.67,5.25,37.22,15.75,8.54,10.5,12.82,25.74,12.82,45.71v81.54c0,4.53-1.29,8.08-3.86,10.66-2.58,2.57-6.02,3.86-10.35,3.86s-8.03-1.24-10.5-3.71c-2.47-2.47-3.71-6.07-3.71-10.81v-82.78c0-12.15-2.06-21.26-6.18-27.34-4.12-6.07-10.92-9.11-20.39-9.11-16.48,0-28.93,9.37-37.37,28.11v91.12c0,4.53-1.29,8.08-3.86,10.66-2.58,2.57-6.13,3.86-10.66,3.86s-7.98-1.24-10.35-3.71c-2.37-2.47-3.55-6.07-3.55-10.81v-77.53c0-13.59-2.27-23.94-6.8-31.04-4.53-7.1-11.12-10.66-19.77-10.66-12.15,0-22.04,4.79-29.65,14.36-7.62,9.58-11.43,21.98-11.43,37.22v67.65c0,4.53-1.29,8.08-3.86,10.66-2.58,2.57-6.13,3.86-10.66,3.86s-8.03-1.29-10.5-3.86Z"/>
    <path class="cls-1" d="M1184.95,1421.05c-12.05-4.53-20.96-10.81-26.72-18.84-1.85-2.47-2.78-5.05-2.78-7.72,0-3.91,1.85-7.31,5.56-10.19,2.26-1.65,4.63-2.47,7.1-2.47,4.32,0,8.34,2.06,12.05,6.18,4.32,5.14,10.5,9.16,18.53,12.05,8.03,2.88,16.78,4.32,26.26,4.32,17.3,0,30.78-5,40.46-14.98,9.68-9.99,14.52-23.74,14.52-41.24v-18.22c-5.77,7-13.28,12.51-22.55,16.53-9.27,4.02-19.05,6.02-29.34,6.02-25.33,0-45.1-7.05-59.3-21.16-14.21-14.1-21.31-33.72-21.31-58.84v-63.01c0-3.71,1.39-6.8,4.17-9.27,2.78-2.47,6.23-3.71,10.35-3.71s7.31,1.29,10.19,3.86c2.88,2.58,4.32,5.61,4.32,9.11v63.01c0,18.12,4.53,32.23,13.59,42.32,9.06,10.09,21.72,15.14,37.99,15.14s28.47-4.89,37.22-14.67c8.75-9.78,13.13-23.63,13.13-41.54v-60.85c0-5.35,1.34-9.47,4.02-12.36,2.67-2.88,6.38-4.32,11.12-4.32s8.34,1.44,10.81,4.32c2.47,2.89,3.71,7,3.71,12.36v132.51c0,16.47-3.35,30.94-10.04,43.4-6.69,12.46-16.27,22.09-28.73,28.88-12.46,6.8-26.93,10.19-43.4,10.19-15.24,0-28.88-2.27-40.93-6.8Z"/>
  </g>
</svg>